# xmcd
#
# Track frame offsets:
#	150
#	16050
#	30000
#	46425
#	61800
#	80550
#	94725
#	110850
#	126900
#	143775
#	159675
#	173625
#	190050
#	205425
#	224175
#	238350
#	254475
#	270525
#
# Disc length: 3835 seconds
#
# Revision: 1
# Processed by: cddbd v1.5.1PL0 Copyright (c) Steve Scherf et al.
# Submitted via: audiograbber 1.82.02
#
DISCID=090ef912
DTITLE=Various Artist - Country Hits Monthly 0008C
DYEAR=1900
DGENRE=Karaoke
TTITLE0=Patty Loveless - That's the kind of mood I'm in
TTITLE1=Trisha Yearwood - Where are you now
TTITLE2=Clint Black - Love she can't live without
TTITLE3=Jo Dee Messina - That's the way
TTITLE4=Vince Gill - Feels like love
TTITLE5=Tracy Lawrence - Lonely
TTITLE6=Darryl Worley - When you need my love
TTITLE7=Montgomery Gentry - Self made man
TTITLE8=Andy Griggs - Waitin' on sundown
TTITLE9=Patty Loveless W - Vocals - That's the kind of mood I'm in W - Vocals
TTITLE10=Trisha Yearwood W - Vocals - Where are you now W - Vocals
TTITLE11=Clint Black W - Vocals - Love she can't live without W - Vocals
TTITLE12=Jo Dee Messina W - Vocals - That's the way W - Vocals
TTITLE13=Vince Gill W - Vocals - Feels like love W - Vocals
TTITLE14=Tracy Lawrence W - Vocals - Lonely W - Vocals
TTITLE15=Darryl Worley W - Vocals - When you need my love W - Vocals
TTITLE16=Montgomery Gentry W - Vocals - Self made man W - Vocals
TTITLE17=Andy Griggs W - Vocals - Waitin' on sundown W - Vocals
EXTD=
EXTT0=
EXTT1=
EXTT2=
EXTT3=
EXTT4=
EXTT5=
EXTT6=
EXTT7=
EXTT8=
EXTT9=
EXTT10=
EXTT11=
EXTT12=
EXTT13=
EXTT14=
EXTT15=
EXTT16=
EXTT17=
PLAYORDER=
